<svg version="1.1" xmlns="http://www.w3.org/2000/svg" xmlns:xlink="http://www.w3.org/1999/xlink">
    <symbol id="arrow-down" viewBox="0 0 9 14">
        <defs>
            <path
                d="M7.5,11.7269472 C7.11373069,11.7269472 6.87650307,11.5723735 6.5647546,11.2398418 L1.17776397,5.49371843 C0.85741201,5.15200968 0.85741201,4.59799032 1.17776397,4.25628157 C1.49811593,3.91457281 2.01750907,3.91457281 2.33786103,4.25628157 L7.5,9.76256313 L12.662139,4.25628157 C12.9824909,3.91457281 13.5018841,3.91457281 13.822236,4.25628157 C14.142588,4.59799032 14.142588,5.15200968 13.822236,5.49371843 C13.822236,5.49371843 10.2436893,9.31083491 8.45441599,11.2193931 C8.13627732,11.5587411 7.88626931,11.7269472 7.5,11.7269472 Z"
                id="path-1"></path>
        </defs>
        <g id="Final" stroke="none" stroke-width="1" fill="none" fill-rule="evenodd">
            <g id="v1-3-1-home-dashboard-footer" transform="translate(-1283.000000, -608.000000)">
                <rect fill="#none" x="0" y="0" width="1366" height="829"></rect>
                <g id="favorites" transform="translate(40.000000, 595.000000)">
                    <g id="Icons-/-Arrow-Right-/-M-Copy"
                        transform="translate(1247.500000, 20.000000) scale(-1, 1) translate(-1247.500000, -20.000000) translate(1240.000000, 12.000000)">
                        <g id="Direct-/-Icons-/-Arrow-Right-/-M">
                            <rect id="box" x="0" y="0" width="15" height="16"></rect>
                            <mask id="mask-2" fill="white">
                                <use xlink:href="#path-1"></use>
                            </mask>
                            <g id="Color-/-Black" mask="url(#mask-2)" fill="#333333">
                                <g transform="translate(-76.875000, -57.000000)" id="#333333">
                                    <polygon points="0 0 169 0 169 130 0 130"></polygon>
                                </g>
                            </g>
                        </g>
                    </g>
                </g>
            </g>
        </g>
    </symbol>
    <symbol id="cloud-drizzle" viewBox="0 0 26 26">
        <defs></defs>
        <g id="Final" stroke="none" stroke-width="1" fill="none" fill-rule="evenodd">
            <g id="v1-2-1-home-dashboard" transform="translate(-212.000000, -365.000000)">
                <g id="status" transform="translate(39.000000, 195.000000)">
                    <g id="Group" transform="translate(1.000000, 40.000000)">
                        <g id="Group-2" transform="translate(-15.000000, -596.000000)">
                            <g id="Group-3-Copy" transform="translate(120.000000, 699.000000)">
                                <g id="Group-4" transform="translate(67.000000, 27.000000)">
                                    <g id="cloud-drizzle" transform="translate(1.000000, 2.000000)"
                                        stroke="#333333" stroke-linecap="round"
                                        stroke-linejoin="round" stroke-width="3">
                                        <path d="M14,18 L14,20" id="Shape"></path>
                                        <path d="M14,11 L14,13" id="Shape"></path>
                                        <path d="M9,20 L9,22" id="Shape"></path>
                                        <path d="M9,13 L9,15" id="Shape"></path>
                                        <path
                                            d="M20,15.58 C22.1666971,14.6310615 23.3719893,12.2936524 22.8885932,9.97818513 C22.4051971,7.66271783 20.3653864,6.00278331 18,6 L16.74,6 C15.8695943,2.62945307 12.9194928,0.208656038 9.44387933,0.0129425627 C5.96826587,-0.182770913 2.76504323,1.89152946 1.52174557,5.14305273 C0.2784479,8.394576 1.28050125,12.0768642 4,14.25"
                                            id="Shape"></path>
                                    </g>
                                </g>
                            </g>
                        </g>
                    </g>
                </g>
            </g>
        </g>
    </symbol>
    <symbol id="burger" viewBox="0 0 16 14">
        <defs>
        <path d="M0,3.32630157 C0,2.77790036 0.444630861,2.33333333 1.00087166,2.33333333 L14.9991283,2.33333333 C15.5518945,2.33333333 16,2.7736791 16,3.32630157 L16,4.00703176 C16,4.55543298 15.5553691,5 14.9991283,5 L1.00087166,5 C0.448105505,5 0,4.55965424 0,4.00703176 L0,3.32630157 Z M0,8.65963491 C0,8.11123369 0.444630861,7.66666667 1.00087166,7.66666667 L14.9991283,7.66666667 C15.5518945,7.66666667 16,8.10701243 16,8.65963491 L16,9.34036509 C16,9.88876631 15.5553691,10.3333333 14.9991283,10.3333333 L1.00087166,10.3333333 C0.448105505,10.3333333 0,9.89298757 0,9.34036509 L0,8.65963491 Z M0,13.9929682 C0,13.444567 0.444630861,13 1.00087166,13 L14.9991283,13 C15.5518945,13 16,13.4403458 16,13.9929682 L16,14.6736984 C16,15.2220996 15.5553691,15.6666667 14.9991283,15.6666667 L1.00087166,15.6666667 C0.448105505,15.6666667 0,15.2263209 0,14.6736984 L0,13.9929682 Z" id="path-1"></path>
    </defs>
    <g id="Final" stroke="none" stroke-width="1" fill="none" fill-rule="evenodd">
        <g id="v1-1-1-mobile-home" transform="translate(-339.000000, -70.000000)">
            <g id="Direct-/-Icons-/-List-/-M" transform="translate(339.000000, 68.000000)">
                <mask id="mask-2" fill="white">
                    <use xlink:href="#path-1"></use>
                </mask>
                <use id="icon_list_m" fill="#333333" xlink:href="#path-1"></use>
            </g>
        </g>
    </g>
    </symbol>
    <symbol id="icon_scheduled" viewBox="0 0 24 24">
        <g id="Final" stroke="none" stroke-width="1" fill="none" fill-rule="evenodd">
        <g id="v1-2-1-home-dashboard" transform="translate(-925.000000, -250.000000)">
            <rect fill="#F8F8F8" x="0" y="0" width="1366" height="768"></rect>
            <g id="scenarios" transform="translate(696.000000, 196.000000)">
                <g id="Widget-Copy-4" transform="translate(215.000000, 40.000000)">
                    <g id="icon" transform="translate(14.000000, 14.000000)">
                        <rect id="Rectangle" fill-rule="nonzero" x="0" y="0" width="24" height="24"></rect>
                        <g id="clock" transform="translate(2.000000, 2.000000)" stroke="#000000" stroke-linecap="round" stroke-linejoin="round" stroke-width="2">
                            <circle id="Oval" cx="10" cy="10" r="10"></circle>
                            <polyline id="Shape" opacity="0.3" points="10 4 10 10 13 13"></polyline>
                        </g>
                    </g>
                </g>
            </g>
        </g>
    </g>
    </symbol>
    <symbol id="icon_sun_2" viewBox="0 0 24 24">
        <g id="Final" stroke="none" stroke-width="1" fill="none" fill-rule="evenodd">
        <g id="v1-2-1-home-dashboard" transform="translate(-1140.000000, -250.000000)">
            <rect fill="#F8F8F8" x="0" y="0" width="1366" height="768"></rect>
            <g id="scenarios" transform="translate(696.000000, 196.000000)">
                <g id="Widget-Copy-5" transform="translate(430.000000, 40.000000)">
                    <g id="icon" transform="translate(14.000000, 14.000000)">
                        <rect id="Rectangle" fill-rule="nonzero" x="0" y="0" width="24" height="24"></rect>
                        <g id="sun" transform="translate(1.000000, 1.000000)" stroke-linecap="round" stroke-linejoin="round" stroke-width="2">
                            <circle id="Oval" stroke="#F5A623" cx="11" cy="11" r="5"></circle>
                            <path d="M11,0 L11,2" id="Shape" stroke="#FFD93E"></path>
                            <path d="M11,20 L11,22" id="Shape" stroke="#FFD93E"></path>
                            <path d="M3.22,3.22 L4.64,4.64" id="Shape" stroke="#FFD93E"></path>
                            <path d="M17.36,17.36 L18.78,18.78" id="Shape" stroke="#FFD93E"></path>
                            <path d="M0,11 L2,11" id="Shape" stroke="#FFD93E"></path>
                            <path d="M20,11 L22,11" id="Shape" stroke="#FFD93E"></path>
                            <path d="M3.22,18.78 L4.64,17.36" id="Shape" stroke="#FFD93E"></path>
                            <path d="M17.36,4.64 L18.78,3.22" id="Shape" stroke="#FFD93E"></path>
                        </g>
                    </g>
                </g>
            </g>
        </g>
    </g>
    </symbol>
    <symbol id="icon_sun" viewBox="0 0 24 24">
        <g id="Final" stroke="none" stroke-width="1" fill="none" fill-rule="evenodd">
        <g id="v1-2-1-home-dashboard" transform="translate(-464.000000, -404.000000)">
            <rect fill="#F8F8F8" x="0" y="0" width="1366" height="768"></rect>
            <g id="status" transform="translate(39.000000, 195.000000)">
                <g id="Group" transform="translate(1.000000, 40.000000)">
                    <g id="Widget-Copy" transform="translate(410.000000, 155.000000)">
                        <g id="icon" transform="translate(14.000000, 14.000000)">
                            <rect id="Rectangle" fill-rule="nonzero" x="0" y="0" width="24" height="24"></rect>
                            <g id="sun" transform="translate(1.000000, 1.000000)" stroke="#333333" stroke-linecap="round" stroke-linejoin="round" stroke-width="2">
                                <circle id="Oval" stroke-opacity="0.4" cx="11" cy="11" r="5"></circle>
                                <path d="M11,0 L11,2" id="Shape" stroke-opacity="0.1"></path>
                                <path d="M11,20 L11,22" id="Shape" stroke-opacity="0.1"></path>
                                <path d="M3.22,3.22 L4.64,4.64" id="Shape" stroke-opacity="0.1"></path>
                                <path d="M17.36,17.36 L18.78,18.78" id="Shape" stroke-opacity="0.1"></path>
                                <path d="M0,11 L2,11" id="Shape" stroke-opacity="0.1"></path>
                                <path d="M20,11 L22,11" id="Shape" stroke-opacity="0.1"></path>
                                <path d="M3.22,18.78 L4.64,17.36" id="Shape" stroke-opacity="0.1"></path>
                                <path d="M17.36,4.64 L18.78,3.22" id="Shape" stroke-opacity="0.1"></path>
                            </g>
                        </g>
                    </g>
                </g>
            </g>
        </g>
    </g>
    </symbol>
    <symbol id="icon_temperature2" viewBox="0 0 24 24">
        <g id="Final" stroke="none" stroke-width="1" fill="none" fill-rule="evenodd">
        <g id="v1-2-1-home-dashboard" transform="translate(-925.000000, -365.000000)">
            <rect fill="#F8F8F8" x="0" y="0" width="1366" height="768"></rect>
            <g id="scenarios" transform="translate(696.000000, 196.000000)">
                <g id="Widget-Copy-7" transform="translate(215.000000, 155.000000)">
                    <g id="icon_temperature" transform="translate(14.000000, 14.000000)">
                        <rect id="Rectangle" fill-rule="nonzero" x="0" y="0" width="24" height="24"></rect>
                        <g id="thermometer" transform="translate(7.000000, 1.000000)">
                            <path d="M7,13.76 L7,2.5 C7,1.11928813 5.88071187,0 4.5,0 C3.11928813,-2.22044605e-16 2,1.11928813 2,2.5 L2,13.76 C0.351885607,14.8611927 -0.381613186,16.911099 0.19375696,18.8079004 C0.769127106,20.7047019 2.51785305,22.0016574 4.5,22.0016574 C6.48214695,22.0016574 8.23087289,20.7047019 8.80624304,18.8079004 C9.38161319,16.911099 8.64811439,14.8611927 7,13.76 Z" id="Shape" stroke="#F5A623" stroke-width="2" stroke-linecap="round" stroke-linejoin="round"></path>
                            <circle id="Oval-2" fill="#FFD93E" fill-rule="nonzero" cx="4.5" cy="17.5" r="3.5"></circle>
                        </g>
                    </g>
                </g>
            </g>
        </g>
    </g>
    </symbol>
    <symbol id="icon_temperature1" viewBox="0 0 24 24">
        <g id="Final" stroke="none" stroke-width="1" fill="none" fill-rule="evenodd">
        <g id="v1-2-1-home-dashboard" transform="translate(-464.000000, -269.000000)">
            <rect fill="#F8F8F8" x="0" y="0" width="1366" height="768"></rect>
            <g id="status" transform="translate(39.000000, 195.000000)">
                <g id="Group" transform="translate(1.000000, 40.000000)">
                    <g id="Widget" transform="translate(410.000000, 20.000000)">
                        <g id="icon_temperature1" transform="translate(14.000000, 14.000000)">
                            <rect id="Rectangle" fill-rule="nonzero" x="0" y="0" width="24" height="24"></rect>
                            <path d="M14.0003489,14.76 L14.0003489,3.5 C14.0003489,2.11928813 12.8810608,1 11.5003489,1 C10.119637,1 9.00034891,2.11928813 9.00034891,3.5 L9.00034891,14.76 C7.35223452,15.8611927 6.61873572,17.911099 7.19410587,19.8079004 C7.76947602,21.7047019 9.51820196,23.0016574 11.5003489,23.0016574 C13.4824959,23.0016574 15.2312218,21.7047019 15.806592,19.8079004 C16.3819621,17.911099 15.6484633,15.8611927 14.0003489,14.76 Z" id="Shape" stroke-opacity="0.4" stroke="#333333" stroke-width="2" stroke-linecap="round" stroke-linejoin="round"></path>
                            <circle id="Oval-2" fill-opacity="0.1" fill="#333333" fill-rule="nonzero" cx="11.5" cy="18.5" r="3.5"></circle>
                        </g>
                    </g>
                </g>
            </g>
        </g>
    </g>
    </symbol>
    <symbol id="logo" viewBox="0 0 112.884 38.04">
        <path fill="red" d="M9.35 21.43v8.68h2.44V7.45H8.15c-3.59 0-6.6 2.38-6.6 7.13 0 3.39 1.33 5.23 3.33 6.25L.63 30.11h2.83l3.86-8.68zm0-2.03h-1.3c-2.12 0-3.87-1.17-3.87-4.82 0-3.77 1.91-5.07 3.87-5.07h1.3z"/><path d="M36.26 28.09H35V14.14h-7.42v1.36c0 4.25-.16 9.19-1.62 12.59h-.98v5.16h2.22v-3.14h6.85v3.14h2.21zm10.75.95l-.57-1.9c-.63.44-1.74 1.07-3.14 1.07-1.96 0-2.98-1.9-2.98-5.51h6.66v-1.37c0-5.42-1.74-7.41-4.41-7.41-3.39 0-4.82 3.74-4.82 8.87 0 4.92 2.03 7.55 5.33 7.55 1.59 0 2.92-.51 3.93-1.3zm-25.9-14.9v6.78h-3.68v-6.78h-2.47v15.97h2.47v-7.16h3.68v7.16h2.44V14.14zM56.2 30.11h2.7l-4.53-8.46 3.96-7.51h-2.51l-3.83 7.38v-7.38h-2.47v15.97h2.47v-7.95zm8.5.23c1.46 0 2.47-.48 3.33-1.21l-.57-1.84c-.57.51-1.49.99-2.7.99-1.99 0-2.95-2.29-2.95-6.28 0-4.03 1.27-6.02 3.05-6.02 1.01 0 1.96.54 2.63 1.11l.35-2.35c-.7-.44-1.52-.82-2.95-.82-3.74 0-5.67 3.2-5.67 8.21 0 5.45 2.06 8.21 5.48 8.21zm-32.14-2.25h-4.25c1.33-3.4 1.49-8.31 1.49-11.67v-.28h2.76zm10.01-12.14c1.43 0 1.87 1.99 1.87 4.72h-4.09c.16-2.85.7-4.72 2.22-4.72zm41.05 12.87h-7.06c.85-1.05 1.36-3.3 1.64-6.69.26-3.27.42-7.64.51-13.38h4.91zm1.91 5.07h1.23v-5.07h-1.55V7.45h-7.93c-.09 6.31-.19 11.32-.5 14.68-.32 3.23-.86 5.77-1.97 6.69h-.66v5.07h1.23l.22-3.78h9.7zm7.7-3.46c2.76 0 4.88-3.1 4.88-8.4 0-5.48-2.12-8.21-4.88-8.21s-4.88 3.08-4.88 8.4c0 5.45 2.12 8.21 4.88 8.21zm0-1.2c-1.87 0-3.39-2.13-3.39-7.1 0-4.85 1.52-7.07 3.39-7.07s3.39 2.06 3.39 7.07c0 4.82-1.52 7.1-3.39 7.1zm12.05-1.02h1.23l2.66-9.38c.23-.76.35-1.49.51-2.38h.13c-.06.89-.13 1.75-.13 2.82v10.84h1.43V14.14h-1.71l-2.86 9.76c-.31 1.14-.44 1.87-.54 2.7h-.12c-.1-.83-.19-1.56-.51-2.7l-2.79-9.76h-1.74v15.97h1.27V19.27c0-1.14-.1-1.93-.16-2.79h.12c.19.8.29 1.49.54 2.35z"/>
    </symbol>
</svg>